{"glyphs":{":":{"x_min":0,"x_max":155,"ha":155,"o":"m 141 336 l 14 336 l 14 438 l 141 438 z m 141 -1 l 14 -1 l 14 101 l 141 101 z"},"$":{"x_min":0,"x_max":379,"ha":379,"o":"m 257 -2 l 257 -48 l 119 -48 l 119 0 q 15 26 15 119 l 15 279 l 155 279 l 155 118 q 155 94 184 94 q 211 94 211 118 l 211 201 q 211 228 192 254 q 172 281 65 385 q 15 442 15 490 l 15 569 q 15 676 119 698 l 119 746 l 257 746 l 257 698 q 352 675 352 581 l 352 460 l 211 460 l 211 589 q 211 610 188 610 q 162 610 162 569 l 165 524 q 165 485 216 432 q 321 329 343 295 q 365 262 365 221 l 365 132 q 365 20 257 -2 z"},"?":{"x_min":0,"x_max":355,"ha":355,"o":"m 213 131 l 75 131 l 75 150 q 75 224 84 260 q 93 295 148 364 q 196 424 196 463 l 196 589 q 196 610 173 610 q 150 610 150 589 l 150 410 l 17 410 l 17 581 q 17 705 174 705 q 253 705 297 678 q 341 650 341 569 l 341 479 q 341 435 327 404 q 312 373 261 313 q 227 274 220 243 q 213 212 213 131 z m 213 0 l 75 0 l 75 102 l 213 102 z"},"<":{"x_min":0,"x_max":382,"ha":382,"o":"m 367 7 l 16 136 l 16 215 l 367 343 l 367 264 l 124 175 l 367 86 z"},"'":{"x_min":0,"x_max":222,"ha":222,"o":"m 211 700 l 69 457 l 10 467 l 76 700 z"},"=":{"x_min":0,"x_max":382,"ha":382,"o":"m 367 215 l 16 215 l 16 294 l 367 294 z m 367 57 l 16 57 l 16 136 l 367 136 z"},"a":{"x_min":0,"x_max":361,"ha":361,"o":"m 344 0 l 221 0 l 221 22 q 205 -8 131 -8 q 18 -8 18 81 l 18 195 q 18 233 45 261 q 73 290 156 332 q 205 356 205 371 l 205 455 q 205 483 181 483 q 153 483 153 415 q 153 403 155 379 q 157 355 157 343 l 22 343 l 22 456 q 22 571 188 571 q 344 571 344 451 z m 205 106 l 205 252 q 157 240 157 209 l 157 106 q 157 80 182 80 q 205 80 205 106 z"},"L":{"x_min":0,"x_max":314,"ha":314,"o":"m 307 0 l 19 0 l 19 700 l 172 700 l 172 90 l 307 90 z"},"3":{"x_min":0,"x_max":375,"ha":375,"o":"m 13 293 l 154 293 l 154 127 q 154 102 182 102 q 210 102 210 127 l 210 290 q 210 317 196 327 q 182 337 144 337 l 144 417 q 210 417 210 458 l 210 582 q 210 603 182 603 q 153 603 153 582 l 153 453 l 17 453 l 17 583 q 17 707 189 707 q 258 707 309 677 q 360 647 360 583 l 360 486 q 360 402 280 374 q 362 350 362 244 l 362 140 q 362 -6 189 -6 q 13 -6 13 126 z"},";":{"x_min":0,"x_max":155,"ha":155,"o":"m 142 336 l 15 336 l 15 438 l 142 438 z m 61 -84 l 33 -61 q 65 -28 68 0 l 14 0 l 14 102 l 141 102 l 141 32 q 141 -31 61 -84 z"},"J":{"x_min":0,"x_max":363,"ha":363,"o":"m 16 281 l 151 281 l 151 108 q 151 91 173 91 q 194 91 194 108 l 194 700 l 348 700 l 348 120 q 348 -6 174 -6 q 112 -6 64 24 q 16 54 16 104 z"},"V":{"x_min":0,"x_max":413,"ha":413,"o":"m 410 700 l 315 0 l 98 0 l 3 700 l 153 700 l 207 211 l 259 700 z"},"\"":{"x_min":0,"x_max":374,"ha":374,"o":"m 363 700 l 222 457 l 163 467 l 228 700 z m 211 700 l 69 457 l 10 467 l 76 700 z"},"7":{"x_min":0,"x_max":376,"ha":376,"o":"m 368 600 l 176 0 l 10 0 l 202 602 l 21 602 l 21 700 l 368 700 z"},"S":{"x_min":0,"x_max":383,"ha":383,"o":"m 17 280 l 157 280 l 157 120 q 157 96 186 96 q 213 96 213 120 l 213 203 q 213 241 163 292 q 64 387 41 420 q 17 453 17 492 l 17 570 q 17 707 194 707 q 354 707 354 583 l 354 461 l 213 461 l 213 590 q 213 611 190 611 q 164 611 164 571 l 167 525 q 167 486 218 435 q 314 342 341 306 q 367 269 367 223 l 367 133 q 367 -6 188 -6 q 17 -6 17 121 z"},"}":{"x_min":0,"x_max":309,"ha":309,"o":"m 298 304 q 227 304 227 219 q 227 202 229 169 q 231 137 231 120 q 231 -8 99 -8 l 10 -8 l 10 68 l 21 68 q 91 68 91 102 l 91 269 q 91 326 159 349 q 91 370 91 428 l 91 595 q 91 629 10 629 l 10 705 l 99 705 q 231 705 231 577 q 231 561 229 528 q 227 496 227 479 q 227 393 298 393 z"},"Z":{"x_min":0,"x_max":367,"ha":367,"o":"m 357 0 l 10 0 l 10 89 l 179 609 l 20 609 l 20 700 l 345 700 l 345 608 l 177 90 l 357 90 z"},"x":{"x_min":0,"x_max":391,"ha":391,"o":"m 388 0 l 235 0 l 187 154 l 142 0 l 3 0 l 112 300 l 6 567 l 153 567 l 200 420 l 238 567 l 370 567 l 277 293 z"},")":{"x_min":0,"x_max":247,"ha":247,"o":"m 13 -8 l 13 68 q 94 68 94 102 l 94 595 q 94 629 13 629 l 13 705 l 102 705 q 195 705 214 677 q 232 648 232 568 l 232 129 q 232 49 203 21 q 173 -8 102 -8 z"},"&":{"x_min":0,"x_max":426,"ha":426,"o":"m 413 194 l 362 194 l 362 105 q 362 52 312 22 q 262 -8 190 -8 q 120 -8 68 26 q 17 59 17 132 l 17 263 q 17 356 108 377 q 21 407 21 477 l 21 580 q 21 637 69 671 q 117 705 184 705 q 248 705 298 674 q 349 642 349 578 l 349 492 l 216 492 l 219 550 q 219 609 188 609 q 161 609 161 580 l 161 469 q 161 437 173 429 q 185 421 219 421 l 219 336 q 185 336 174 329 q 163 323 163 287 l 163 119 q 163 90 190 90 q 219 90 219 119 l 219 274 l 413 274 z"},"_":{"x_min":0,"x_max":372,"ha":372,"o":"m 374 -120 l 0 -120 l 0 -41 l 374 -41 z"},"v":{"x_min":0,"x_max":379,"ha":379,"o":"m 375 567 l 273 0 l 105 0 l 3 567 l 144 567 l 191 232 l 238 567 z"},"O":{"x_min":0,"x_max":382,"ha":382,"o":"m 16 120 l 16 570 q 16 707 192 707 q 367 707 367 571 l 367 121 q 367 60 318 27 q 270 -6 191 -6 q 16 -6 16 120 z m 216 112 l 216 589 q 216 610 191 610 q 166 610 166 589 l 166 112 q 166 91 191 91 q 216 91 216 112 z"},"(":{"x_min":0,"x_max":247,"ha":247,"o":"m 234 -8 l 146 -8 q 64 -8 39 27 q 15 62 15 129 l 15 568 q 15 647 32 676 q 50 705 146 705 l 234 705 l 234 629 q 154 629 154 595 l 154 102 q 154 68 234 68 z"},"C":{"x_min":0,"x_max":370,"ha":370,"o":"m 354 456 l 213 456 l 213 594 q 213 611 192 611 q 170 611 170 594 l 170 108 q 170 91 192 91 q 213 91 213 108 l 213 281 l 354 281 l 354 104 q 354 54 305 24 q 256 -6 194 -6 q 17 -6 17 120 l 17 570 q 17 707 194 707 q 354 707 354 583 z"},"W":{"x_min":0,"x_max":629,"ha":629,"o":"m 627 700 l 537 0 l 355 0 l 300 386 l 248 0 l 91 0 l 4 700 l 142 700 l 181 377 l 234 700 l 407 700 l 449 377 l 501 700 z"},"A":{"x_min":0,"x_max":440,"ha":440,"o":"m 433 0 l 280 0 l 254 188 l 186 188 l 160 0 l 7 0 l 123 700 l 317 700 z m 242 285 l 220 494 l 199 285 z"},"f":{"x_min":0,"x_max":278,"ha":278,"o":"m 277 483 l 197 483 l 197 0 l 58 0 l 58 483 l 11 483 l 11 567 l 58 567 q 58 642 77 671 q 96 700 189 700 l 277 700 l 277 624 l 250 624 q 214 624 206 611 q 197 597 197 567 l 277 567 z"},"Q":{"x_min":0,"x_max":383,"ha":383,"o":"m 367 -96 l 306 -96 q 212 -96 212 -6 q 16 -6 16 120 l 16 570 q 16 707 193 707 q 367 707 367 571 l 367 121 q 367 47 290 10 q 290 -6 302 -10 q 313 -15 367 -15 z m 217 112 l 217 589 q 217 610 192 610 q 166 610 166 589 l 166 112 q 166 91 192 91 q 217 91 217 112 z"},"w":{"x_min":0,"x_max":597,"ha":597,"o":"m 594 567 l 497 0 l 344 0 l 300 232 l 261 0 l 101 0 l 3 567 l 138 567 l 186 259 l 229 567 l 369 567 l 412 259 l 459 567 z"},"-":{"x_min":0,"x_max":225,"ha":225,"o":"m 217 249 l 18 249 l 18 328 l 217 328 z"},"E":{"x_min":0,"x_max":326,"ha":326,"o":"m 318 0 l 17 0 l 17 700 l 316 700 l 316 610 l 171 610 l 171 421 l 302 421 l 302 336 l 171 336 l 171 90 l 318 90 z"},"s":{"x_min":0,"x_max":354,"ha":354,"o":"m 15 228 l 154 228 l 154 108 q 154 79 177 79 q 201 79 201 134 q 201 206 172 227 q 63 284 41 307 q 18 330 18 375 l 18 451 q 18 571 180 571 q 338 571 338 456 l 338 344 l 202 344 l 205 412 q 205 483 179 483 q 153 483 153 438 q 153 393 165 369 q 176 346 292 289 q 341 254 341 197 l 341 112 q 341 -8 176 -8 q 15 -8 15 107 z"},">":{"x_min":0,"x_max":381,"ha":381,"o":"m 366 136 l 15 7 l 15 86 l 258 175 l 15 264 l 15 343 l 366 215 z"},"l":{"x_min":0,"x_max":172,"ha":172,"o":"m 156 0 l 17 0 l 17 700 l 156 700 z"},"8":{"x_min":0,"x_max":378,"ha":378,"o":"m 95 378 q 18 402 18 509 l 18 583 q 18 707 189 707 q 258 707 310 677 q 361 647 361 583 l 361 509 q 361 402 284 378 q 365 359 365 271 l 365 126 q 365 -6 188 -6 q 14 -6 14 126 l 14 271 q 14 359 95 378 z m 215 443 l 215 589 q 215 610 189 610 q 164 610 164 589 l 164 443 q 164 422 189 422 q 215 422 215 443 z m 215 112 l 215 316 q 215 337 189 337 q 164 337 164 316 l 164 112 q 164 91 189 91 q 215 91 215 112 z"},"\\":{"x_min":0,"x_max":334,"ha":334,"o":"m 321 0 l 238 0 l 14 700 l 97 700 z"},"e":{"x_min":0,"x_max":357,"ha":357,"o":"m 341 240 l 154 240 l 154 108 q 154 79 179 79 q 203 79 203 108 l 203 222 l 341 222 l 341 107 q 341 -8 178 -8 q 16 -8 16 112 l 16 451 q 16 571 178 571 q 341 571 341 456 z m 203 325 l 203 455 q 203 483 179 483 q 154 483 154 455 l 154 325 z"},"b":{"x_min":0,"x_max":356,"ha":356,"o":"m 132 19 l 120 0 l 15 0 l 15 700 l 154 700 l 154 550 q 179 571 240 571 q 278 571 309 551 q 341 530 341 492 l 341 85 q 341 42 303 17 q 266 -8 213 -8 q 172 -8 132 19 z m 202 106 l 202 457 q 202 483 178 483 q 154 483 154 458 l 154 106 q 154 80 178 80 q 202 80 202 106 z"},"%":{"x_min":0,"x_max":346,"ha":346,"o":"m 22 471 l 22 656 q 22 705 90 705 q 158 705 158 656 l 158 471 q 158 426 90 426 q 22 426 22 471 z m 99 469 l 99 662 q 99 670 90 670 q 80 670 80 662 l 80 469 q 80 461 90 461 q 99 461 99 469 z m 333 700 l 80 0 l 13 0 l 266 700 z m 189 37 l 189 222 q 189 271 257 271 q 325 271 325 222 l 325 37 q 325 -8 257 -8 q 189 -8 189 37 z m 266 35 l 266 228 q 266 236 257 236 q 247 236 247 228 l 247 35 q 247 27 257 27 q 266 27 266 35 z"},"m":{"x_min":0,"x_max":546,"ha":546,"o":"m 529 0 l 391 0 l 391 453 q 391 479 367 479 q 342 479 342 454 l 342 0 l 204 0 l 204 454 q 204 480 180 480 q 155 480 155 455 l 155 0 l 17 0 l 17 567 l 155 567 l 155 547 q 184 571 242 571 q 290 571 330 532 q 366 571 430 571 q 466 571 498 549 q 529 527 529 489 z"},"#":{"x_min":0,"x_max":803,"ha":803,"o":"m 789 562 l 765 423 l 626 423 l 601 277 l 739 277 l 714 138 l 576 138 l 552 0 l 413 0 l 437 138 l 291 138 l 267 0 l 128 0 l 152 138 l 14 138 l 39 277 l 176 277 l 202 423 l 65 423 l 89 562 l 227 562 l 251 700 l 390 700 l 366 562 l 512 562 l 536 700 l 675 700 l 651 562 z m 487 423 l 341 423 l 316 277 l 461 277 z"},",":{"x_min":0,"x_max":157,"ha":157,"o":"m 62 -84 l 34 -61 q 67 -28 70 0 l 15 0 l 15 102 l 142 102 l 142 32 q 142 -31 62 -84 z"},"n":{"x_min":0,"x_max":356,"ha":356,"o":"m 341 0 l 202 0 l 202 455 q 202 481 178 481 q 154 481 154 456 l 154 0 l 15 0 l 15 567 l 154 567 l 154 548 q 182 571 240 571 q 278 571 310 550 q 341 530 341 490 z"},"h":{"x_min":0,"x_max":358,"ha":358,"o":"m 342 0 l 203 0 l 203 457 q 203 483 179 483 q 155 483 155 458 l 155 0 l 16 0 l 16 700 l 155 700 l 155 550 q 180 571 241 571 q 282 571 312 549 q 342 528 342 492 z"},"z":{"x_min":0,"x_max":356,"ha":356,"o":"m 347 0 l 13 0 l 13 78 l 171 476 l 22 476 l 22 567 l 332 567 l 332 490 l 172 90 l 347 90 z"},"B":{"x_min":0,"x_max":379,"ha":379,"o":"m 16 0 l 16 700 l 197 700 q 262 700 310 671 q 358 641 358 576 l 358 479 q 358 405 268 375 q 363 352 363 274 l 363 138 q 363 69 318 34 q 272 0 210 0 z m 213 454 l 213 573 q 213 610 170 610 l 170 417 q 213 417 213 454 z m 213 127 l 213 304 q 213 341 170 341 l 170 90 q 213 90 213 127 z"},"K":{"x_min":0,"x_max":406,"ha":406,"o":"m 401 0 l 232 0 l 173 260 l 173 0 l 19 0 l 19 700 l 173 700 l 173 467 l 240 700 l 383 700 l 288 381 z"},"R":{"x_min":0,"x_max":401,"ha":401,"o":"m 397 -1 l 243 -1 q 218 29 218 168 l 218 169 l 219 211 q 221 298 221 300 q 221 336 173 336 l 173 0 l 19 0 l 19 700 l 209 700 q 274 700 322 670 q 370 641 370 576 l 370 492 q 370 411 275 382 q 371 359 371 266 l 368 189 q 368 21 397 -1 z m 221 458 l 221 573 q 221 610 173 610 l 173 421 q 221 421 221 458 z"},"T":{"x_min":0,"x_max":350,"ha":350,"o":"m 338 609 l 252 609 l 252 0 l 98 0 l 98 609 l 12 609 l 12 700 l 338 700 z"},"P":{"x_min":0,"x_max":379,"ha":379,"o":"m 167 258 l 167 0 l 17 0 l 17 700 l 179 700 q 275 700 322 676 q 368 651 368 576 l 368 382 q 368 313 330 284 q 292 256 167 258 z m 218 395 l 218 563 q 218 600 167 600 l 167 358 q 218 358 218 395 z"},"|":{"x_min":0,"x_max":170,"ha":170,"o":"m 154 0 l 16 0 l 16 700 l 154 700 z"},"t":{"x_min":0,"x_max":302,"ha":302,"o":"m 291 0 l 203 0 q 109 0 90 28 q 72 57 72 137 l 72 483 l 10 483 l 10 567 l 72 567 l 72 681 l 211 681 l 211 567 l 286 567 l 286 483 l 211 483 l 211 138 q 211 113 226 105 q 241 96 291 96 z"},"M":{"x_min":0,"x_max":570,"ha":570,"o":"m 553 0 l 416 0 l 416 393 l 335 0 l 229 0 l 138 393 l 138 0 l 18 0 l 18 700 l 215 700 l 286 337 l 347 700 l 553 700 z"},"g":{"x_min":0,"x_max":356,"ha":356,"o":"m 40 -120 l 40 -38 l 153 -38 q 202 -38 202 13 q 175 -8 116 -8 q 75 -8 45 14 q 15 36 15 71 l 15 478 q 15 571 126 571 q 155 571 203 546 l 221 567 l 341 567 l 341 8 q 341 -47 319 -84 q 297 -120 184 -120 z m 202 101 l 202 457 q 202 483 178 483 q 154 483 154 457 l 154 102 q 154 76 178 76 q 202 76 202 101 z"},"j":{"x_min":0,"x_max":178,"ha":178,"o":"m 158 598 l 19 598 l 19 700 l 158 700 z m -59 -120 l -59 -38 q -4 -38 7 -33 q 19 -27 19 1 l 19 567 l 158 567 l 158 -13 q 158 -120 45 -120 z"},"i":{"x_min":0,"x_max":166,"ha":166,"o":"m 152 598 l 13 598 l 13 700 l 152 700 z m 152 0 l 13 0 l 13 567 l 152 567 z"},"y":{"x_min":0,"x_max":386,"ha":386,"o":"m 382 567 l 274 3 q 258 -83 230 -102 q 202 -120 152 -120 l 55 -120 l 55 -44 q 109 -44 123 -39 q 136 -33 136 -7 q 136 20 76 268 l 3 567 l 143 567 l 201 267 l 247 567 z"},"@":{"x_min":0,"x_max":801,"ha":801,"o":"m 461 115 q 424 68 331 68 q 217 68 217 157 l 217 408 q 217 497 331 497 q 401 497 420 467 l 420 493 l 543 493 l 543 215 q 543 148 583 148 q 702 148 702 298 q 702 624 407 624 q 244 624 170 527 q 96 430 96 298 q 96 165 171 65 q 245 -35 407 -35 q 532 -35 630 -11 l 630 -95 q 530 -119 409 -119 q 237 -119 126 0 q 15 118 15 295 q 15 471 126 588 q 237 705 409 705 q 585 705 687 604 q 788 503 788 295 q 788 198 730 132 q 673 67 580 67 q 499 67 461 115 z m 404 182 l 404 382 q 404 409 380 409 q 356 409 356 381 l 356 182 q 356 156 381 156 q 404 156 404 182 z"},".":{"x_min":0,"x_max":154,"ha":154,"o":"m 141 0 l 14 0 l 14 102 l 141 102 z"},"p":{"x_min":0,"x_max":356,"ha":356,"o":"m 154 13 l 154 -120 l 15 -120 l 15 567 l 120 567 l 132 544 q 166 571 213 571 q 260 571 301 547 q 341 523 341 478 l 341 71 q 341 35 312 14 q 282 -8 240 -8 q 182 -8 154 13 z m 202 106 l 202 457 q 202 483 178 483 q 154 483 154 457 l 154 105 q 154 80 178 80 q 202 80 202 106 z"},"X":{"x_min":0,"x_max":455,"ha":455,"o":"m 452 0 l 287 0 l 217 225 l 151 0 l 4 0 l 125 398 l 35 700 l 183 700 l 238 497 l 299 700 l 437 700 l 332 376 z"},"*":{"x_min":0,"x_max":421,"ha":421,"o":"m 408 528 l 274 485 l 356 373 l 292 326 l 210 438 l 129 326 l 64 373 l 146 485 l 14 528 l 39 604 l 170 561 l 170 700 l 250 700 l 250 561 l 382 604 z"},"Y":{"x_min":0,"x_max":440,"ha":440,"o":"m 437 700 l 336 418 l 286 277 l 286 0 l 132 0 l 132 271 q 128 309 93 417 q 62 508 4 700 l 151 700 l 220 452 l 299 700 z"},"c":{"x_min":0,"x_max":356,"ha":356,"o":"m 341 316 l 202 316 l 202 455 q 202 483 178 483 q 154 483 154 455 l 154 108 q 154 79 178 79 q 202 79 202 108 l 202 245 l 341 245 l 341 107 q 341 -8 180 -8 q 15 -8 15 112 l 15 451 q 15 571 180 571 q 341 571 341 456 z"},"!":{"x_min":0,"x_max":168,"ha":168,"o":"m 154 133 l 15 133 l 15 700 l 154 700 z m 154 0 l 15 0 l 15 102 l 154 102 z"},"/":{"x_min":0,"x_max":334,"ha":334,"o":"m 320 700 l 97 0 l 14 0 l 237 700 z"},"[":{"x_min":0,"x_max":157,"ha":157,"o":"m 146 0 l 17 0 l 17 700 l 146 700 l 146 662 l 80 662 l 80 36 l 146 36 z"},"6":{"x_min":0,"x_max":375,"ha":375,"o":"m 363 500 l 213 500 l 216 557 q 216 611 188 611 q 162 611 162 588 l 162 452 q 179 475 235 475 q 291 475 327 447 q 363 419 363 371 l 363 121 q 363 60 315 27 q 266 -6 188 -6 q 12 -6 12 120 l 12 570 q 12 707 189 707 q 363 707 363 571 z m 213 114 l 213 343 q 213 367 188 367 q 162 367 162 343 l 162 114 q 162 91 188 91 q 213 91 213 114 z"},"r":{"x_min":0,"x_max":356,"ha":356,"o":"m 345 332 l 206 332 l 206 455 q 206 481 182 481 q 158 481 158 456 l 158 0 l 19 0 l 19 567 l 158 567 l 158 548 q 186 571 244 571 q 286 571 315 549 q 345 526 345 490 z"},"2":{"x_min":0,"x_max":376,"ha":376,"o":"m 364 0 l 13 0 l 13 93 l 186 410 q 214 462 214 552 q 214 599 183 599 q 150 599 150 569 l 150 449 l 13 449 l 13 571 q 13 707 187 707 q 294 707 329 657 q 364 607 364 494 q 364 450 349 421 l 176 90 l 364 90 z"},"{":{"x_min":0,"x_max":309,"ha":309,"o":"m 298 -8 l 209 -8 q 131 -8 103 28 q 75 64 75 136 l 76 190 q 78 226 78 244 q 78 304 10 304 l 10 393 q 82 393 82 479 q 82 496 79 528 q 77 561 77 578 q 77 705 209 705 l 298 705 l 298 629 l 284 629 q 217 629 217 595 l 217 428 q 217 373 149 349 q 217 326 217 269 l 217 102 q 217 68 298 68 z"},"9":{"x_min":0,"x_max":379,"ha":379,"o":"m 14 292 l 164 292 l 164 114 q 164 91 190 91 q 215 91 215 114 l 215 322 q 199 305 153 305 q 92 305 53 334 q 14 364 14 417 l 14 580 q 14 641 62 674 q 111 707 189 707 q 268 707 317 674 q 365 641 365 581 l 365 129 q 365 -6 188 -6 q 14 -6 14 128 z m 215 420 l 215 588 q 215 611 190 611 q 164 611 164 588 l 164 420 q 164 397 190 397 q 215 397 215 420 z"}," ":{"x_min":0,"x_max":178,"ha":178,"o":""},"I":{"x_min":0,"x_max":182,"ha":182,"o":"m 168 0 l 14 0 l 14 700 l 168 700 z"},"H":{"x_min":0,"x_max":380,"ha":380,"o":"m 365 0 l 211 0 l 211 336 l 168 336 l 168 0 l 15 0 l 15 700 l 168 700 l 168 421 l 211 421 l 211 700 l 365 700 z"},"4":{"x_min":0,"x_max":441,"ha":441,"o":"m 438 90 l 362 90 l 362 0 l 212 0 l 212 90 l 4 90 l 4 189 l 155 700 l 362 700 l 362 195 l 438 195 z m 212 195 l 212 471 l 142 195 z"},"~":{"x_min":0,"x_max":584,"ha":584,"o":"m 42 272 l 42 372 q 94 431 178 431 q 231 431 332 388 q 386 365 416 365 q 481 365 542 432 l 542 329 q 482 273 407 273 q 355 273 267 312 q 208 338 170 338 q 111 338 42 272 z"},"D":{"x_min":0,"x_max":382,"ha":382,"o":"m 15 0 l 15 700 l 207 700 q 269 700 318 666 q 367 632 367 562 l 367 138 q 367 73 321 36 q 275 0 208 0 z m 212 127 l 212 573 q 212 610 169 610 l 169 90 q 212 90 212 127 z"},"^":{"x_min":0,"x_max":469,"ha":469,"o":"m 117 337 l 26 337 l 199 728 l 270 728 l 443 337 l 354 337 l 234 628 z"},"0":{"x_min":0,"x_max":388,"ha":388,"o":"m 15 120 l 15 570 q 15 707 196 707 q 374 707 374 571 l 374 121 q 374 60 323 27 q 273 -6 195 -6 q 114 -6 64 26 q 15 59 15 120 z m 220 112 l 220 589 q 220 610 195 610 q 168 610 168 589 l 168 112 q 168 91 195 91 q 220 91 220 112 z"},"F":{"x_min":0,"x_max":313,"ha":313,"o":"m 305 610 l 171 610 l 171 421 l 291 421 l 291 336 l 171 336 l 171 0 l 17 0 l 17 700 l 305 700 z"},"`":{"x_min":0,"x_max":155,"ha":155,"o":"m 145 610 l 69 610 l 10 700 l 116 700 z"},"k":{"x_min":0,"x_max":410,"ha":410,"o":"m 404 0 l 241 0 l 155 205 l 155 0 l 17 0 l 17 700 l 155 700 l 155 386 l 227 567 l 371 567 l 270 319 z"},"u":{"x_min":0,"x_max":356,"ha":356,"o":"m 341 0 l 202 0 l 202 19 q 175 -8 116 -8 q 75 -8 45 14 q 15 36 15 71 l 15 567 l 154 567 l 154 106 q 154 80 178 80 q 202 80 202 105 l 202 567 l 341 567 z"},"]":{"x_min":0,"x_max":157,"ha":157,"o":"m 141 0 l 12 0 l 12 36 l 78 36 l 78 662 l 12 662 l 12 700 l 141 700 z"},"U":{"x_min":0,"x_max":391,"ha":391,"o":"m 16 700 l 170 700 l 170 112 q 170 91 196 91 q 221 91 221 112 l 221 700 l 375 700 l 375 121 q 375 60 325 27 q 274 -6 196 -6 q 123 -6 70 23 q 16 53 16 120 z"},"o":{"x_min":0,"x_max":352,"ha":352,"o":"m 13 112 l 13 451 q 13 571 178 571 q 242 571 291 543 q 339 515 339 456 l 339 107 q 339 -8 178 -8 q 13 -8 13 112 z m 200 108 l 200 455 q 200 483 176 483 q 152 483 152 455 l 152 108 q 152 79 176 79 q 200 79 200 108 z"},"N":{"x_min":0,"x_max":425,"ha":425,"o":"m 408 0 l 250 0 l 146 373 l 146 0 l 17 0 l 17 700 l 192 700 l 280 381 l 280 700 l 408 700 z"},"+":{"x_min":0,"x_max":373,"ha":373,"o":"m 362 136 l 226 136 l 226 0 l 146 0 l 146 136 l 11 136 l 11 215 l 146 215 l 146 351 l 226 351 l 226 215 l 362 215 z"},"G":{"x_min":0,"x_max":370,"ha":370,"o":"m 354 0 l 281 0 l 261 39 q 210 -6 153 -6 q 98 -6 57 22 q 16 51 16 113 l 16 570 q 16 707 189 707 q 354 707 354 583 l 354 453 l 215 453 l 215 594 q 215 611 192 611 q 169 611 169 594 l 169 108 q 169 91 192 91 q 215 91 215 108 l 215 239 l 184 239 l 184 347 l 354 347 z"},"q":{"x_min":0,"x_max":356,"ha":356,"o":"m 341 -120 l 202 -120 l 202 13 q 175 -8 116 -8 q 75 -8 45 14 q 15 36 15 71 l 15 478 q 15 521 53 546 q 90 571 143 571 q 185 571 224 544 l 236 567 l 341 567 z m 202 105 l 202 457 q 202 483 178 483 q 154 483 154 457 l 154 106 q 154 80 178 80 q 202 80 202 105 z"},"d":{"x_min":0,"x_max":356,"ha":356,"o":"m 341 0 l 236 0 l 224 19 q 188 -8 143 -8 q 90 -8 52 17 q 15 42 15 85 l 15 492 q 15 528 45 550 q 74 571 116 571 q 174 571 202 550 l 202 700 l 341 700 z m 202 106 l 202 458 q 202 483 178 483 q 154 483 154 457 l 154 106 q 154 80 178 80 q 202 80 202 106 z"},"1":{"x_min":0,"x_max":244,"ha":244,"o":"m 227 0 l 73 0 l 73 513 l 14 513 l 14 615 q 48 615 71 644 q 94 673 94 700 l 227 700 z"},"5":{"x_min":0,"x_max":376,"ha":376,"o":"m 368 700 l 344 594 l 169 594 l 163 450 q 186 473 243 473 q 364 473 364 369 l 364 121 q 364 60 315 27 q 267 -6 188 -6 q 13 -6 13 120 l 13 294 l 163 294 l 163 114 q 163 91 188 91 q 214 91 214 114 l 214 347 q 214 372 186 372 q 160 372 159 329 l 15 333 l 22 700 z"}}}
